<svg xmlns="http://www.w3.org/2000/svg" xmlns:xlink="http://www.w3.org/1999/xlink" width="500" zoomAndPan="magnify" viewBox="0 0 375 112.499997" height="150" preserveAspectRatio="xMidYMid meet" version="1.0"><defs><clipPath id="e0164299bb"><path d="M 5 0 L 122 0 L 122 112.003906 L 5 112.003906 Z M 5 0 " clip-rule="nonzero"/></clipPath></defs><path fill="#172853" d="M 238.90625 39.5 C 237.554688 38.828125 235.335938 38.421875 232.5625 38.421875 C 229.789062 38.421875 227.558594 38.828125 226.207031 39.511719 C 223.160156 41.007812 222.390625 43.847656 222.390625 46.359375 L 222.390625 61.023438 C 222.390625 61.351562 222.664062 61.636719 223.007812 61.636719 L 226.242188 61.636719 C 226.582031 61.636719 226.855469 61.351562 226.855469 61.023438 L 226.855469 45.929688 C 226.878906 45.71875 226.800781 42.859375 232.5625 42.859375 C 238.320312 42.859375 238.246094 45.71875 238.265625 45.929688 L 238.265625 61.023438 C 238.265625 61.066406 238.265625 61.097656 238.277344 61.144531 C 238.300781 61.230469 238.332031 61.308594 238.390625 61.375 C 238.488281 61.53125 238.671875 61.636719 238.882812 61.636719 L 242.117188 61.636719 C 242.402344 61.636719 242.65625 61.417969 242.722656 61.144531 L 242.730469 61.023438 L 242.730469 46.359375 C 242.730469 43.847656 241.949219 41.007812 238.90625 39.5 Z M 256.058594 38.421875 C 252.417969 38.421875 250.351562 39.324219 248.460938 41.109375 C 247.011719 42.519531 246.261719 44.222656 246.261719 46.183594 L 246.261719 53.722656 C 246.261719 56.167969 246.976562 58.105469 248.371094 59.503906 C 250.074219 61.210938 252.8125 62.078125 256.519531 62.078125 C 256.574219 62.066406 256.617188 62.066406 256.671875 62.078125 C 260.117188 62.078125 262.820312 61.40625 264.734375 60.0625 L 264.746094 60.0625 C 264.796875 60.03125 264.855469 59.996094 264.898438 59.953125 C 265.074219 59.765625 265.128906 59.480469 264.996094 59.226562 L 263.589844 56.550781 C 263.476562 56.339844 263.269531 56.21875 263.050781 56.21875 C 262.71875 56.21875 261.902344 56.707031 260.488281 57.164062 C 259.519531 57.480469 258.265625 57.660156 256.695312 57.636719 C 254.285156 57.625 252.570312 57.175781 251.636719 56.25 C 251.035156 55.644531 250.738281 54.808594 250.738281 53.71875 L 250.738281 51.613281 L 265.460938 51.613281 C 265.714844 51.613281 265.933594 51.460938 266.03125 51.242188 C 266.03125 51.230469 266.03125 51.21875 266.042969 51.207031 C 266.054688 51.121094 266.066406 51.042969 266.078125 50.953125 C 266.140625 50.339844 266.070312 49.535156 266.070312 48.488281 C 266.070312 41.902344 262.675781 38.417969 256.058594 38.417969 Z M 250.734375 47.183594 L 250.734375 46.480469 C 250.734375 44.902344 252.554688 42.710938 256.265625 42.710938 C 261.832031 42.710938 261.664062 46.480469 261.664062 46.480469 L 261.664062 47.1875 C 261.664062 47.1875 250.734375 47.1875 250.734375 47.1875 Z M 286.355469 56.5625 C 286.242188 56.355469 286.035156 56.238281 285.816406 56.234375 C 285.734375 56.234375 285.597656 56.277344 285.550781 56.296875 C 285.507812 56.320312 285.433594 56.355469 285.386719 56.378906 C 285.320312 56.414062 282.804688 57.660156 280.359375 57.660156 C 278.148438 57.660156 276.554688 57.441406 275.640625 57.011719 C 274.554688 56.472656 274.015625 55.625 273.949219 54.371094 C 273.9375 54.316406 273.9375 54.273438 273.9375 54.226562 L 273.9375 54.183594 C 273.925781 54.085938 273.925781 53.984375 273.925781 53.898438 L 273.925781 46.597656 C 273.925781 46.511719 273.925781 46.410156 273.9375 46.3125 C 273.925781 46.300781 273.925781 46.292969 273.9375 46.28125 C 273.972656 44.925781 274.511719 44.042969 275.640625 43.484375 C 276.554688 43.054688 278.148438 42.835938 280.359375 42.835938 C 281.875 42.835938 283.140625 43.089844 284.140625 43.585938 C 284.546875 43.792969 285.578125 44.355469 285.578125 44.355469 C 285.578125 44.355469 285.863281 44.535156 286.019531 44.535156 L 286.050781 44.535156 C 286.292969 44.511719 286.523438 44.347656 286.613281 44.082031 L 287.550781 41.03125 C 287.617188 40.8125 287.5625 40.597656 287.417969 40.441406 L 287.40625 40.433594 C 287.34375 40.386719 287.285156 40.328125 287.21875 40.296875 C 285.703125 39.238281 283.605469 38.601562 280.933594 38.46875 C 280.867188 38.46875 280.808594 38.457031 280.746094 38.457031 L 280.578125 38.457031 C 280.359375 38.445312 280.160156 38.433594 279.941406 38.433594 L 279.820312 38.433594 C 279.566406 38.433594 279.289062 38.433594 279.027344 38.445312 C 278.820312 38.457031 278.589844 38.46875 278.378906 38.480469 C 278.179688 38.488281 277.992188 38.511719 277.796875 38.535156 C 274.121094 38.855469 272 40.140625 270.8125 41.78125 C 270.714844 41.925781 270.613281 42.066406 270.527344 42.222656 C 270.40625 42.398438 270.296875 42.597656 270.199219 42.804688 C 270.074219 43.070312 269.964844 43.347656 269.867188 43.632812 C 269.824219 43.777344 269.78125 43.929688 269.734375 44.082031 C 269.710938 44.148438 269.699219 44.226562 269.679688 44.300781 L 269.679688 44.324219 C 269.613281 44.609375 269.558594 44.910156 269.523438 45.214844 C 269.46875 45.601562 269.449219 46.007812 269.449219 46.4375 L 269.449219 54.089844 C 269.449219 54.320312 269.460938 54.550781 269.46875 54.78125 C 269.492188 54.9375 269.503906 55.09375 269.511719 55.242188 L 269.511719 55.253906 C 269.558594 55.574219 269.601562 55.882812 269.679688 56.179688 C 269.691406 56.242188 269.699219 56.324219 269.734375 56.398438 C 269.753906 56.53125 269.796875 56.660156 269.84375 56.796875 C 269.855469 56.828125 269.855469 56.847656 269.867188 56.871094 C 269.964844 57.15625 270.074219 57.445312 270.199219 57.695312 C 270.273438 57.839844 270.339844 57.980469 270.417969 58.117188 C 270.527344 58.292969 270.636719 58.46875 270.757812 58.632812 C 270.855469 58.785156 270.96875 58.917969 271.078125 59.0625 C 272.3125 60.546875 274.410156 61.683594 277.851562 61.976562 C 278.03125 62 278.214844 62.011719 278.402344 62.019531 L 279.03125 62.054688 C 279.261719 62.066406 279.503906 62.066406 279.742188 62.066406 L 279.941406 62.066406 C 280.140625 62.066406 280.339844 62.066406 280.523438 62.042969 L 280.746094 62.042969 C 283.660156 61.933594 285.921875 61.226562 287.496094 60.0625 C 287.546875 60.03125 287.605469 59.996094 287.648438 59.953125 C 287.648438 59.953125 287.65625 59.945312 287.671875 59.929688 C 287.824219 59.742188 287.878906 59.46875 287.746094 59.226562 L 286.351562 56.5625 Z M 348.257812 39.5 C 346.902344 38.828125 344.683594 38.421875 341.910156 38.421875 C 339.140625 38.421875 336.910156 38.828125 335.554688 39.511719 C 332.507812 41.007812 331.742188 43.847656 331.742188 46.359375 L 331.742188 61.003906 C 331.742188 61.335938 332.015625 61.621094 332.355469 61.621094 L 335.589844 61.621094 C 335.933594 61.621094 336.207031 61.335938 336.207031 61.003906 L 336.207031 45.929688 C 336.226562 45.71875 336.152344 42.859375 341.910156 42.859375 C 347.671875 42.859375 347.59375 45.71875 347.617188 45.929688 L 347.617188 61.003906 C 347.617188 61.050781 347.617188 61.082031 347.628906 61.128906 C 347.648438 61.214844 347.683594 61.292969 347.738281 61.359375 C 347.835938 61.511719 348.023438 61.621094 348.234375 61.621094 L 351.464844 61.621094 C 351.75 61.621094 352.007812 61.402344 352.070312 61.128906 L 352.082031 61.003906 L 352.082031 46.359375 C 352.082031 43.847656 351.300781 41.007812 348.257812 39.5 Z M 303.65625 56.253906 C 303.546875 56.046875 303.335938 55.921875 303.117188 55.921875 C 303.03125 55.921875 302.941406 55.945312 302.855469 55.988281 C 302.84375 55.988281 302.832031 55.988281 302.820312 56 C 302.789062 56.019531 302.757812 56.03125 302.734375 56.0625 C 302.714844 56.0625 302.703125 56.085938 302.679688 56.097656 C 302.460938 56.230469 302.21875 56.382812 301.941406 56.570312 C 300.855469 57.296875 299.742188 57.660156 298.570312 57.660156 C 296.5 57.660156 295.621094 56.6875 295.621094 54.433594 L 295.621094 43.269531 L 303.792969 43.269531 C 304.136719 43.269531 304.410156 42.984375 304.410156 42.652344 L 304.410156 39.460938 C 304.410156 39.117188 304.136719 38.84375 303.792969 38.84375 L 295.625 38.84375 L 295.625 32.191406 C 295.625 31.851562 295.351562 31.566406 295.007812 31.566406 L 291.777344 31.566406 C 291.480469 31.566406 291.226562 31.785156 291.160156 32.070312 L 291.160156 32.105469 C 291.148438 32.125 291.148438 32.15625 291.148438 32.191406 C 291.148438 32.234375 291.148438 32.265625 291.160156 32.3125 L 291.160156 54.429688 C 291.160156 59.425781 293.621094 62.070312 298.285156 62.070312 C 300.019531 62.070312 301.660156 61.71875 303.1875 61.023438 C 303.890625 60.714844 304.484375 60.386719 304.957031 60.042969 L 304.96875 60.042969 C 305.023438 60.011719 305.078125 59.980469 305.121094 59.933594 C 305.121094 59.933594 305.128906 59.925781 305.144531 59.910156 L 305.15625 59.898438 C 305.300781 59.710938 305.351562 59.449219 305.21875 59.207031 L 303.65625 56.246094 Z M 324.753906 39.5 C 324.679688 39.46875 324.601562 39.425781 324.523438 39.402344 C 323.148438 38.785156 321.015625 38.421875 318.402344 38.421875 C 315.785156 38.421875 313.652344 38.796875 312.289062 39.402344 C 312.214844 39.433594 312.136719 39.46875 312.058594 39.515625 C 309.011719 41.011719 308.234375 43.851562 308.234375 46.363281 L 308.234375 54.15625 C 308.234375 56.652344 309.015625 59.496094 312.058594 61.003906 C 312.136719 61.035156 312.214844 61.066406 312.289062 61.101562 C 313.65625 61.710938 315.785156 62.082031 318.402344 62.082031 C 321.015625 62.082031 323.152344 61.71875 324.523438 61.101562 C 324.601562 61.070312 324.679688 61.039062 324.753906 60.992188 C 327.800781 59.496094 328.582031 56.652344 328.582031 54.15625 L 328.582031 46.363281 C 328.582031 43.851562 327.800781 41.011719 324.753906 39.503906 Z M 324.105469 54.570312 C 324.097656 54.78125 324.160156 57.644531 318.402344 57.644531 C 312.644531 57.644531 312.71875 54.78125 312.707031 54.570312 L 312.707031 45.925781 C 312.71875 45.71875 312.644531 42.855469 318.414062 42.855469 C 324.183594 42.855469 324.097656 45.71875 324.105469 45.925781 Z M 324.105469 54.570312 " fill-opacity="1" fill-rule="nonzero"/><path fill="#172853" d="M 228.238281 75.71875 C 228.238281 77.675781 227.039062 78.699219 225.328125 78.699219 C 223.613281 78.699219 222.390625 77.664062 222.390625 75.71875 L 222.390625 70.796875 L 223.160156 70.796875 L 223.160156 75.628906 C 223.160156 77.230469 224.101562 77.976562 225.335938 77.976562 C 226.570312 77.976562 227.460938 77.230469 227.460938 75.628906 L 227.460938 70.796875 L 228.238281 70.796875 Z M 228.238281 75.71875 " fill-opacity="1" fill-rule="nonzero"/><path fill="#172853" d="M 230.121094 73.023438 L 230.789062 73.023438 L 230.867188 73.691406 L 230.933594 73.691406 C 231.210938 73.265625 231.65625 72.910156 232.414062 72.910156 C 233.34375 72.910156 233.78125 73.5 233.949219 73.925781 L 234.015625 73.925781 C 234.261719 73.445312 234.761719 72.910156 235.707031 72.910156 C 236.71875 72.910156 237.496094 73.523438 237.496094 74.804688 L 237.496094 78.589844 L 236.75 78.589844 L 236.75 74.960938 C 236.75 73.988281 236.183594 73.570312 235.546875 73.570312 C 234.75 73.570312 234.179688 74.203125 234.179688 75.136719 L 234.179688 78.589844 L 233.433594 78.589844 L 233.433594 75.050781 C 233.433594 74.050781 232.867188 73.582031 232.210938 73.582031 C 231.554688 73.582031 230.867188 74.039062 230.867188 75.109375 L 230.867188 78.59375 L 230.121094 78.59375 Z M 230.121094 73.023438 " fill-opacity="1" fill-rule="nonzero"/><path fill="#172853" d="M 244.183594 77.964844 L 244.183594 78.535156 C 244.027344 78.589844 243.859375 78.644531 243.59375 78.644531 C 243.082031 78.644531 242.640625 78.390625 242.550781 77.832031 C 242.171875 78.367188 241.496094 78.703125 240.679688 78.703125 C 239.691406 78.703125 238.902344 78.214844 238.902344 77.132812 C 238.902344 76.050781 239.710938 75.53125 240.835938 75.429688 L 242.457031 75.273438 L 242.457031 74.90625 C 242.457031 74.09375 242.035156 73.550781 241.167969 73.550781 C 240.304688 73.550781 239.992188 74.050781 239.871094 74.71875 L 239.125 74.71875 C 239.234375 73.683594 239.957031 72.914062 241.167969 72.914062 C 242.382812 72.914062 243.203125 73.636719 243.203125 74.882812 L 243.203125 77.445312 C 243.203125 77.921875 243.414062 78.066406 243.761719 78.066406 C 243.902344 78.066406 244.050781 78.023438 244.183594 77.964844 Z M 242.460938 75.851562 L 241.035156 75.984375 C 240.226562 76.0625 239.648438 76.429688 239.648438 77.117188 C 239.648438 77.808594 240.171875 78.074219 240.761719 78.074219 C 241.558594 78.074219 242.460938 77.640625 242.460938 76.460938 Z M 242.460938 75.851562 " fill-opacity="1" fill-rule="nonzero"/><path fill="#172853" d="M 252.765625 75.960938 L 248.554688 75.960938 C 248.597656 77.21875 249.3125 78.066406 250.421875 78.066406 C 251.203125 78.066406 251.800781 77.722656 252.011719 77.042969 L 252.734375 77.042969 C 252.492188 78.125 251.578125 78.703125 250.421875 78.703125 C 248.898438 78.703125 247.820312 77.578125 247.820312 75.863281 C 247.820312 74.058594 248.914062 72.914062 250.390625 72.914062 C 251.726562 72.914062 252.792969 73.859375 252.792969 75.664062 C 252.792969 75.753906 252.792969 75.84375 252.769531 75.964844 Z M 248.566406 75.382812 L 252.054688 75.382812 C 252.046875 74.28125 251.367188 73.546875 250.386719 73.546875 C 249.410156 73.546875 248.65625 74.347656 248.566406 75.382812 Z M 248.566406 75.382812 " fill-opacity="1" fill-rule="nonzero"/><path fill="#172853" d="M 254.234375 73.023438 L 254.902344 73.023438 L 254.980469 73.691406 L 255.046875 73.691406 C 255.324219 73.265625 255.769531 72.910156 256.527344 72.910156 C 257.460938 72.910156 257.894531 73.5 258.0625 73.925781 L 258.128906 73.925781 C 258.375 73.445312 258.875 72.910156 259.820312 72.910156 C 260.832031 72.910156 261.609375 73.523438 261.609375 74.804688 L 261.609375 78.589844 L 260.863281 78.589844 L 260.863281 74.960938 C 260.863281 73.988281 260.296875 73.570312 259.664062 73.570312 C 258.863281 73.570312 258.296875 74.203125 258.296875 75.136719 L 258.296875 78.589844 L 257.550781 78.589844 L 257.550781 75.050781 C 257.550781 74.050781 256.984375 73.582031 256.328125 73.582031 C 255.667969 73.582031 254.980469 74.039062 254.980469 75.109375 L 254.980469 78.59375 L 254.234375 78.59375 Z M 254.234375 73.023438 " fill-opacity="1" fill-rule="nonzero"/><path fill="#172853" d="M 268.386719 75.816406 C 268.386719 77.578125 267.332031 78.703125 265.863281 78.703125 C 264.84375 78.703125 264.265625 78.15625 264.007812 77.734375 L 264.007812 80.816406 L 263.261719 80.816406 L 263.261719 73.023438 L 263.886719 73.023438 L 263.953125 73.882812 L 264.023438 73.882812 C 264.289062 73.480469 264.84375 72.910156 265.867188 72.910156 C 267.355469 72.910156 268.390625 74.078125 268.390625 75.816406 Z M 267.65625 75.816406 C 267.65625 74.46875 266.886719 73.578125 265.800781 73.578125 C 264.710938 73.578125 264.007812 74.46875 264.007812 75.816406 C 264.007812 77.164062 264.710938 78.035156 265.800781 78.035156 C 266.890625 78.035156 267.65625 77.144531 267.65625 75.816406 Z M 267.65625 75.816406 " fill-opacity="1" fill-rule="nonzero"/><path fill="#172853" d="M 269.796875 73.023438 L 270.453125 73.023438 L 270.542969 73.78125 L 270.613281 73.78125 C 270.867188 73.3125 271.269531 72.910156 272.160156 72.910156 L 272.449219 72.910156 L 272.449219 73.667969 C 272.292969 73.648438 272.171875 73.648438 271.992188 73.648438 C 271.171875 73.648438 270.546875 74.328125 270.546875 75.503906 L 270.546875 78.589844 L 269.800781 78.589844 L 269.800781 73.023438 Z M 269.796875 73.023438 " fill-opacity="1" fill-rule="nonzero"/><path fill="#172853" d="M 277.960938 75.960938 L 273.75 75.960938 C 273.792969 77.21875 274.503906 78.066406 275.617188 78.066406 C 276.394531 78.066406 276.996094 77.722656 277.207031 77.042969 L 277.929688 77.042969 C 277.683594 78.125 276.773438 78.703125 275.617188 78.703125 C 274.09375 78.703125 273.015625 77.578125 273.015625 75.863281 C 273.015625 74.058594 274.105469 72.914062 275.585938 72.914062 C 276.917969 72.914062 277.984375 73.859375 277.984375 75.664062 C 277.984375 75.753906 277.984375 75.84375 277.964844 75.964844 Z M 273.757812 75.382812 L 277.25 75.382812 C 277.238281 74.28125 276.5625 73.546875 275.582031 73.546875 C 274.601562 73.546875 273.847656 74.347656 273.757812 75.382812 Z M 273.757812 75.382812 " fill-opacity="1" fill-rule="nonzero"/><path fill="#172853" d="M 279.140625 76.953125 L 279.859375 76.953125 C 279.9375 77.8125 280.484375 78.089844 281.171875 78.089844 C 281.792969 78.089844 282.328125 77.832031 282.328125 77.199219 C 282.328125 76.484375 281.640625 76.226562 281.117188 76.0625 L 280.78125 75.960938 C 280.171875 75.761719 279.316406 75.460938 279.316406 74.449219 C 279.316406 73.488281 280.136719 72.910156 281.105469 72.910156 C 282.351562 72.910156 282.917969 73.710938 282.949219 74.449219 L 282.230469 74.449219 C 282.171875 73.914062 281.75 73.523438 281.105469 73.523438 C 280.539062 73.523438 280.039062 73.816406 280.039062 74.414062 C 280.039062 75.015625 280.59375 75.21875 281.140625 75.398438 L 281.441406 75.496094 C 282.164062 75.71875 283.054688 76.097656 283.054688 77.179688 C 283.054688 78.257812 282.183594 78.707031 281.171875 78.707031 C 279.816406 78.707031 279.171875 77.945312 279.140625 76.957031 Z M 279.140625 76.953125 " fill-opacity="1" fill-rule="nonzero"/><path fill="#172853" d="M 289.5 77.964844 L 289.5 78.535156 C 289.34375 78.589844 289.175781 78.644531 288.910156 78.644531 C 288.398438 78.644531 287.957031 78.390625 287.867188 77.832031 C 287.488281 78.367188 286.8125 78.703125 285.996094 78.703125 C 285.007812 78.703125 284.21875 78.214844 284.21875 77.132812 C 284.21875 76.050781 285.027344 75.53125 286.152344 75.429688 L 287.773438 75.273438 L 287.773438 74.90625 C 287.773438 74.09375 287.351562 73.550781 286.484375 73.550781 C 285.621094 73.550781 285.308594 74.050781 285.1875 74.71875 L 284.441406 74.71875 C 284.550781 73.683594 285.273438 72.914062 286.484375 72.914062 C 287.699219 72.914062 288.519531 73.636719 288.519531 74.882812 L 288.519531 77.445312 C 288.519531 77.921875 288.730469 78.066406 289.074219 78.066406 C 289.21875 78.066406 289.367188 78.023438 289.5 77.964844 Z M 287.777344 75.851562 L 286.351562 75.984375 C 285.542969 76.0625 284.964844 76.429688 284.964844 77.117188 C 284.964844 77.808594 285.488281 78.074219 286.074219 78.074219 C 286.875 78.074219 287.777344 77.640625 287.777344 76.460938 Z M 287.777344 75.851562 " fill-opacity="1" fill-rule="nonzero"/><path fill="#172853" d="M 298.550781 76.476562 C 298.550781 77.8125 297.691406 78.589844 296.261719 78.589844 L 293.558594 78.589844 L 293.558594 70.796875 L 296.214844 70.796875 C 297.652344 70.796875 298.363281 71.566406 298.363281 72.734375 C 298.363281 73.757812 297.828125 74.238281 297.25 74.496094 L 297.25 74.539062 C 297.917969 74.792969 298.550781 75.328125 298.550781 76.476562 Z M 294.3125 74.246094 L 296.144531 74.246094 C 297.078125 74.246094 297.59375 73.679688 297.59375 72.8125 C 297.59375 71.941406 297.023438 71.464844 296.179688 71.464844 L 294.308594 71.464844 L 294.308594 74.246094 Z M 297.769531 76.453125 C 297.769531 75.539062 297.148438 74.90625 296.191406 74.90625 L 294.3125 74.90625 L 294.3125 77.921875 L 296.203125 77.921875 C 297.15625 77.921875 297.769531 77.367188 297.769531 76.453125 Z M 297.769531 76.453125 " fill-opacity="1" fill-rule="nonzero"/><path fill="#172853" d="M 304.765625 71.507812 L 302.484375 71.507812 L 302.484375 78.589844 L 301.71875 78.589844 L 301.71875 71.507812 L 299.429688 71.507812 L 299.429688 70.796875 L 304.765625 70.796875 Z M 304.765625 71.507812 " fill-opacity="1" fill-rule="nonzero"/><path fill="#172853" d="M 312.261719 74.628906 L 312.261719 78.589844 L 311.648438 78.589844 L 311.550781 77.621094 L 311.480469 77.621094 C 311.148438 77.988281 310.371094 78.703125 308.96875 78.703125 C 306.800781 78.703125 305.46875 77.078125 305.46875 74.808594 C 305.46875 72.535156 306.945312 70.6875 309.179688 70.6875 C 310.839844 70.6875 311.960938 71.621094 312.226562 72.925781 L 311.417969 72.925781 C 311.152344 72.042969 310.371094 71.410156 309.179688 71.410156 C 307.414062 71.410156 306.246094 72.835938 306.246094 74.796875 C 306.246094 76.621094 307.28125 77.992188 309.027344 77.992188 C 310.28125 77.992188 311.507812 77.332031 311.507812 75.910156 L 311.507812 75.273438 L 309.070312 75.273438 L 309.070312 74.628906 Z M 312.261719 74.628906 " fill-opacity="1" fill-rule="nonzero"/><path fill="#172853" d="M 322.476562 73.070312 C 322.476562 74.496094 321.53125 75.371094 320.03125 75.371094 L 318.140625 75.371094 L 318.140625 78.589844 L 317.394531 78.589844 L 317.394531 70.796875 L 320.117188 70.796875 C 321.542969 70.796875 322.472656 71.695312 322.472656 73.066406 Z M 321.699219 73.078125 C 321.699219 72.042969 321 71.5 320.066406 71.5 L 318.140625 71.5 L 318.140625 74.671875 L 319.976562 74.671875 C 321.054688 74.671875 321.699219 74.082031 321.699219 73.078125 Z M 321.699219 73.078125 " fill-opacity="1" fill-rule="nonzero"/><path fill="#172853" d="M 328.449219 78 L 328.449219 78.589844 L 328.082031 78.589844 C 327.558594 78.589844 327.257812 78.386719 327.171875 77.851562 C 326.78125 78.367188 326.125 78.699219 325.324219 78.699219 C 324.335938 78.699219 323.546875 78.210938 323.546875 77.128906 C 323.546875 76.046875 324.355469 75.527344 325.480469 75.425781 L 327.101562 75.273438 L 327.101562 74.90625 C 327.101562 74.09375 326.679688 73.546875 325.8125 73.546875 C 324.949219 73.546875 324.636719 74.046875 324.515625 74.714844 L 323.769531 74.714844 C 323.878906 73.679688 324.601562 72.910156 325.8125 72.910156 C 327.027344 72.910156 327.847656 73.632812 327.847656 74.878906 L 327.847656 77.519531 C 327.847656 77.851562 328.003906 77.996094 328.304688 77.996094 L 328.449219 77.996094 Z M 327.101562 75.851562 L 325.679688 75.984375 C 324.867188 76.0625 324.289062 76.429688 324.289062 77.117188 C 324.289062 77.808594 324.8125 78.074219 325.402344 78.074219 C 326.203125 78.074219 327.101562 77.640625 327.101562 76.460938 Z M 327.101562 75.851562 " fill-opacity="1" fill-rule="nonzero"/><path fill="#172853" d="M 329.292969 75.839844 C 329.292969 74.179688 330.382812 72.910156 331.972656 72.910156 C 333.183594 72.910156 334.1875 73.613281 334.382812 74.824219 L 333.636719 74.824219 C 333.484375 74.15625 332.878906 73.578125 331.96875 73.578125 C 330.8125 73.578125 330.023438 74.570312 330.023438 75.839844 C 330.023438 77.109375 330.746094 78.03125 331.96875 78.03125 C 332.878906 78.03125 333.4375 77.554688 333.660156 76.839844 L 334.417969 76.839844 C 334.183594 77.964844 333.261719 78.695312 331.96875 78.695312 C 330.300781 78.695312 329.289062 77.4375 329.289062 75.835938 Z M 329.292969 75.839844 " fill-opacity="1" fill-rule="nonzero"/><path fill="#172853" d="M 336.226562 77.464844 L 336.226562 73.636719 L 335.050781 73.636719 L 335.050781 73.023438 L 335.429688 73.023438 C 336.074219 73.023438 336.296875 72.824219 336.296875 72.222656 L 336.296875 71.511719 L 336.972656 71.511719 L 336.972656 73.023438 L 338.320312 73.023438 L 338.320312 73.636719 L 336.972656 73.636719 L 336.972656 77.355469 C 336.972656 77.800781 337.175781 78.066406 337.664062 78.066406 C 337.84375 78.066406 338.039062 78.035156 338.207031 77.976562 L 338.207031 78.589844 C 338.042969 78.632812 337.796875 78.699219 337.488281 78.699219 C 336.554688 78.699219 336.230469 78.144531 336.230469 77.464844 Z M 336.226562 77.464844 " fill-opacity="1" fill-rule="nonzero"/><path fill="#172853" d="M 343.789062 78.589844 L 343.121094 78.589844 L 343.042969 77.921875 L 342.976562 77.921875 C 342.699219 78.3125 342.265625 78.703125 341.375 78.703125 C 340.261719 78.703125 339.417969 78 339.417969 76.597656 L 339.417969 73.023438 L 340.164062 73.023438 L 340.164062 76.417969 C 340.164062 77.554688 340.765625 78.03125 341.519531 78.03125 C 342.320312 78.03125 343.046875 77.519531 343.046875 76.296875 L 343.046875 73.023438 L 343.792969 73.023438 L 343.792969 78.589844 Z M 343.789062 78.589844 " fill-opacity="1" fill-rule="nonzero"/><path fill="#172853" d="M 350.125 78 L 350.125 78.589844 L 349.761719 78.589844 C 349.238281 78.589844 348.9375 78.386719 348.847656 77.851562 C 348.460938 78.367188 347.804688 78.699219 347.003906 78.699219 C 346.015625 78.699219 345.222656 78.210938 345.222656 77.128906 C 345.222656 76.046875 346.035156 75.527344 347.160156 75.425781 L 348.78125 75.273438 L 348.78125 74.90625 C 348.78125 74.09375 348.359375 73.546875 347.492188 73.546875 C 346.625 73.546875 346.316406 74.046875 346.191406 74.714844 L 345.445312 74.714844 C 345.558594 73.679688 346.28125 72.910156 347.492188 72.910156 C 348.703125 72.910156 349.527344 73.632812 349.527344 74.878906 L 349.527344 77.519531 C 349.527344 77.851562 349.679688 77.996094 349.984375 77.996094 L 350.125 77.996094 Z M 348.78125 75.851562 L 347.355469 75.984375 C 346.546875 76.0625 345.96875 76.429688 345.96875 77.117188 C 345.96875 77.808594 346.492188 78.074219 347.078125 78.074219 C 347.878906 78.074219 348.78125 77.640625 348.78125 76.460938 Z M 348.78125 75.851562 " fill-opacity="1" fill-rule="nonzero"/><path fill="#172853" d="M 351.304688 70.6875 L 352.050781 70.6875 L 352.050781 78.589844 L 351.304688 78.589844 Z M 351.304688 70.6875 " fill-opacity="1" fill-rule="nonzero"/><g clip-path="url(#e0164299bb)"><path stroke-linecap="butt" transform="matrix(0.639048, 0, 0, 0.641268, 21.653209, 8.306909)" fill="none" stroke-linejoin="miter" d="M 139.353777 55.660219 C 138.974795 54.210453 138.546913 52.778962 138.082355 51.353563 C 137.617797 49.934254 137.104339 48.527129 136.554205 47.138278 C 136.00407 45.749427 135.411148 44.372759 134.775437 43.020457 C 134.139726 41.662063 133.46734 40.328036 132.752165 39.012282 C 132.036991 37.70262 131.28514 36.411232 130.490502 35.138119 C 129.701976 33.871097 128.870662 32.628441 128.002672 31.404059 C 127.134683 30.185769 126.23613 28.991845 125.294789 27.828378 C 124.359561 26.66491 123.381544 25.525809 122.379077 24.423256 C 121.370498 23.314612 120.331355 22.242517 119.26165 21.194787 C 118.185831 20.153149 117.085563 19.141968 115.954731 18.161244 C 114.8239 17.186612 113.662505 16.242437 112.470547 15.334811 C 111.284702 14.427185 110.068294 13.556107 108.827436 12.715487 C 107.586577 11.880958 106.321268 11.089069 105.031509 10.327638 C 103.74175 9.566207 102.433653 8.847415 101.101105 8.165173 C 99.768558 7.489022 98.417672 6.849419 97.042336 6.246366 C 95.673113 5.649403 94.285552 5.095081 92.879654 4.577308 C 91.473755 4.059535 90.055631 3.590493 88.625282 3.158 C 87.194932 2.725507 85.746245 2.341745 84.291446 1.994533 C 82.836646 1.653411 81.369621 1.35493 79.896484 1.099089 C 78.423347 0.843248 76.944097 0.630047 75.452621 0.465578 C 73.967259 0.295018 72.475784 0.173189 70.984308 0.100091 C 69.48672 0.0209023 67.995245 -0.00955496 66.497657 0.00262795 C 65.00007 0.0148108 63.508594 0.0757254 62.017119 0.173189 C 60.525644 0.276743 59.034169 0.42903 57.548806 0.617865 C 56.069556 0.812791 54.590306 1.044266 53.123281 1.330564 C 51.650144 1.610771 50.189232 1.933618 48.740545 2.299105 C 47.291858 2.670684 45.855396 3.084902 44.431159 3.53567 C 43.00081 3.992529 41.594911 4.492028 40.195125 5.028075 C 38.801452 5.570214 37.426116 6.148902 36.063005 6.77023 C 34.706007 7.39765 33.361235 8.055527 32.040912 8.762135 C 30.72059 9.462652 29.424718 10.205809 28.147184 10.985515 C 26.86965 11.771312 25.622679 12.587566 24.394045 13.446461 C 23.165412 14.299264 21.967342 15.194708 20.793722 16.120608 C 19.620102 17.0526 18.477045 18.015049 17.364552 19.007956 C 16.245945 20.006954 15.164014 21.036409 14.106534 22.102413 C 13.055166 23.162326 12.034362 24.252696 11.050232 25.379614 C 10.059991 26.500441 9.106425 27.657817 8.189534 28.839558 C 7.272643 30.015209 6.386316 31.227407 5.542777 32.457881 C 4.693125 33.694445 3.886261 34.949284 3.116073 36.23458 C 2.345885 37.519877 1.618485 38.823447 0.927761 40.145292 C 0.230924 41.473228 -0.417012 42.819439 -1.028272 44.183924 C -1.639532 45.554501 -2.208004 46.93726 -2.739801 48.332203 C -3.265485 49.733236 -3.74838 51.152545 -4.1946 52.577944 C -4.634708 54.009435 -5.032027 55.447018 -5.392671 56.902875 C -5.747202 58.35264 -6.058944 59.814588 -6.327899 61.28872 C -6.596854 62.762851 -6.816907 64.236982 -7.000285 65.723296 C -7.177551 67.20961 -7.312028 68.702016 -7.403717 70.194421 C -7.489294 71.686827 -7.538194 73.179233 -7.538194 74.67773 C -7.538194 76.176227 -7.489294 77.668632 -7.403717 79.161038 C -7.312028 80.653443 -7.177551 82.145849 -7.000285 83.632163 C -6.816907 85.112386 -6.596854 86.592608 -6.327899 88.06674 C -6.058944 89.534779 -5.747202 91.002819 -5.392671 92.452585 C -5.032027 93.908441 -4.634708 95.346024 -4.1946 96.777515 C -3.74838 98.202915 -3.265485 99.622223 -2.739801 101.017165 C -2.208004 102.418199 -1.639532 103.800958 -1.028272 105.165443 C -0.417012 106.53602 0.230924 107.882231 0.927761 109.204076 C 1.618485 110.532012 2.345885 111.835583 3.116073 113.120879 C 3.886261 114.406175 4.693125 115.661014 5.542777 116.897579 C 6.386316 118.128052 7.272643 119.340251 8.189534 120.515901 C 9.106425 121.697642 10.059991 122.848927 11.050232 123.975845 C 12.034362 125.096672 13.055166 126.193133 14.106534 127.253046 C 15.164014 128.31905 16.245945 129.348505 17.364552 130.347503 C 18.477045 131.34041 19.620102 132.302859 20.793722 133.234851 C 21.967342 134.160752 23.165412 135.056195 24.394045 135.908998 C 25.622679 136.767893 26.86965 137.584147 28.147184 138.369945 C 29.424718 139.14965 30.72059 139.892807 32.040912 140.593324 C 33.361235 141.293841 34.706007 141.957809 36.063005 142.579137 C 37.426116 143.206557 38.801452 143.785245 40.195125 144.327384 C 41.594911 144.863432 43.00081 145.362931 44.431159 145.819789 C 45.855396 146.270557 47.291858 146.684776 48.740545 147.050263 C 50.189232 147.421841 51.650144 147.744688 53.123281 148.024895 C 54.590306 148.305102 56.069556 148.542668 57.548806 148.737595 C 59.034169 148.92643 60.525644 149.078716 62.017119 149.176179 C 63.508594 149.279734 65.00007 149.340648 66.497657 149.352831 C 67.995245 149.365014 69.48672 149.334557 70.984308 149.255368 C 72.475784 149.176179 73.967259 149.05435 75.452621 148.889881 C 76.944097 148.725412 78.423347 148.512211 79.896484 148.25637 C 81.369621 148.000529 82.836646 147.702048 84.291446 147.360927 C 85.746245 147.013714 87.194932 146.629952 88.625282 146.197459 C 90.055631 145.764966 91.473755 145.295925 92.879654 144.778151 C 94.285552 144.260378 95.673113 143.706056 97.042336 143.109094 C 98.417672 142.50604 99.768558 141.866438 101.101105 141.184195 C 102.433653 140.508044 103.74175 139.789253 105.031509 139.027821 C 106.321268 138.26639 107.586577 137.474501 108.827436 136.633881 C 110.068294 135.799352 111.284702 134.928275 112.470547 134.020648 C 113.662505 133.113022 114.8239 132.168847 115.954731 131.194215 C 117.085563 130.213491 118.185831 129.20231 119.26165 128.160672 C 120.331355 127.112942 121.370498 126.040847 122.379077 124.932203 C 123.381544 123.823559 124.359561 122.690549 125.294789 121.527082 C 126.23613 120.357523 127.134683 119.16969 128.002672 117.9514 C 128.870662 116.727018 129.701976 115.484362 130.490502 114.21734 C 131.28514 112.944227 132.036991 111.652839 132.752165 110.343177 C 133.46734 109.027424 134.139726 107.693396 134.775437 106.335002 C 135.411148 104.9827 136.00407 103.606032 136.554205 102.217181 C 137.104339 100.82833 137.617797 99.421205 138.082355 98.001897 C 138.546913 96.576497 138.974795 95.145006 139.353777 93.695241 " stroke="#001F62" stroke-width="3" stroke-opacity="1" stroke-miterlimit="4"/></g><path fill="#001F62" d="M 42.851562 62.511719 L 40.273438 62.511719 C 39.210938 60.203125 38.183594 57.789062 37.195312 55.265625 C 36.207031 52.742188 35.285156 50.21875 34.433594 47.691406 L 37.398438 47.691406 C 37.738281 48.691406 38.085938 49.710938 38.441406 50.75 C 38.800781 51.792969 39.15625 52.816406 39.507812 53.820312 C 39.863281 54.828125 40.21875 55.800781 40.574219 56.738281 C 40.929688 57.679688 41.277344 58.542969 41.617188 59.324219 C 41.945312 58.542969 42.285156 57.683594 42.640625 56.746094 C 42.992188 55.8125 43.351562 54.839844 43.714844 53.828125 C 44.074219 52.820312 44.433594 51.792969 44.792969 50.75 C 45.148438 49.710938 45.488281 48.691406 45.816406 47.691406 L 48.691406 47.691406 C 47.828125 50.21875 46.902344 52.742188 45.925781 55.265625 C 44.941406 57.789062 43.914062 60.203125 42.851562 62.511719 Z M 49.011719 56.972656 C 49.011719 55.988281 49.15625 55.125 49.445312 54.386719 C 49.738281 53.648438 50.128906 53.03125 50.609375 52.539062 C 51.089844 52.046875 51.644531 51.675781 52.269531 51.421875 C 52.894531 51.175781 53.535156 51.050781 54.1875 51.050781 C 55.722656 51.050781 56.917969 51.527344 57.777344 52.480469 C 58.640625 53.441406 59.070312 54.867188 59.070312 56.757812 C 59.070312 56.898438 59.066406 57.0625 59.058594 57.238281 C 59.046875 57.417969 59.039062 57.578125 59.023438 57.722656 L 51.675781 57.722656 C 51.742188 58.617188 52.058594 59.3125 52.621094 59.804688 C 53.183594 60.296875 53.996094 60.542969 55.0625 60.542969 C 55.6875 60.542969 56.261719 60.488281 56.773438 60.375 C 57.296875 60.261719 57.703125 60.136719 58.003906 60.011719 L 58.339844 62.125 C 58.199219 62.199219 58.007812 62.273438 57.757812 62.351562 C 57.507812 62.429688 57.222656 62.5 56.902344 62.5625 C 56.582031 62.625 56.242188 62.679688 55.875 62.722656 C 55.503906 62.765625 55.125 62.785156 54.742188 62.785156 C 53.761719 62.785156 52.910156 62.640625 52.1875 62.351562 C 51.460938 62.058594 50.867188 61.652344 50.398438 61.132812 C 49.929688 60.609375 49.578125 59.996094 49.347656 59.292969 C 49.125 58.585938 49.011719 57.8125 49.011719 56.972656 Z M 51.695312 55.816406 L 56.488281 55.816406 C 56.488281 55.460938 56.4375 55.125 56.339844 54.804688 C 56.242188 54.484375 56.097656 54.203125 55.90625 53.96875 C 55.714844 53.734375 55.480469 53.546875 55.203125 53.410156 C 54.925781 53.277344 54.597656 53.214844 54.210938 53.214844 C 53.8125 53.214844 53.464844 53.289062 53.164062 53.4375 C 52.867188 53.585938 52.613281 53.78125 52.410156 54.019531 C 52.203125 54.265625 52.042969 54.542969 51.929688 54.855469 C 51.816406 55.171875 51.738281 55.492188 51.695312 55.816406 Z M 68.589844 51.480469 L 68.144531 53.660156 C 67.929688 53.589844 67.636719 53.515625 67.261719 53.4375 C 66.882812 53.355469 66.445312 53.316406 65.953125 53.316406 C 65.667969 53.316406 65.363281 53.34375 65.042969 53.40625 C 64.726562 53.460938 64.5 53.511719 64.375 53.554688 L 64.375 62.511719 L 61.796875 62.511719 L 61.796875 51.867188 C 62.292969 51.679688 62.914062 51.503906 63.65625 51.339844 C 64.402344 51.171875 65.230469 51.089844 66.144531 51.089844 C 66.3125 51.089844 66.511719 51.101562 66.738281 51.121094 C 66.964844 51.144531 67.191406 51.171875 67.421875 51.210938 C 67.648438 51.246094 67.867188 51.289062 68.082031 51.339844 C 68.292969 51.386719 68.464844 51.433594 68.589844 51.480469 Z M 77.773438 56.886719 C 77.773438 55.789062 77.558594 54.917969 77.128906 54.277344 C 76.695312 53.636719 76.007812 53.316406 75.070312 53.316406 C 74.644531 53.316406 74.242188 53.378906 73.863281 53.507812 C 73.488281 53.636719 73.1875 53.78125 72.960938 53.9375 L 72.960938 60.375 C 73.144531 60.417969 73.382812 60.457031 73.671875 60.492188 C 73.964844 60.527344 74.320312 60.542969 74.734375 60.542969 C 75.683594 60.542969 76.429688 60.21875 76.96875 59.574219 C 77.507812 58.925781 77.773438 58.027344 77.773438 56.886719 Z M 80.421875 56.933594 C 80.421875 57.832031 80.289062 58.636719 80.023438 59.355469 C 79.757812 60.078125 79.382812 60.695312 78.894531 61.210938 C 78.402344 61.722656 77.8125 62.113281 77.117188 62.382812 C 76.421875 62.652344 75.632812 62.785156 74.75 62.785156 C 73.898438 62.785156 73.085938 62.722656 72.3125 62.59375 C 71.535156 62.464844 70.890625 62.324219 70.378906 62.171875 L 70.378906 46.34375 L 72.960938 45.921875 L 72.960938 51.710938 C 73.261719 51.558594 73.625 51.414062 74.054688 51.28125 C 74.488281 51.15625 74.972656 51.089844 75.5 51.089844 C 76.277344 51.089844 76.976562 51.230469 77.59375 51.511719 C 78.214844 51.792969 78.730469 52.1875 79.140625 52.699219 C 79.550781 53.214844 79.867188 53.828125 80.085938 54.546875 C 80.308594 55.265625 80.421875 56.058594 80.421875 56.933594 Z M 92.222656 51.328125 L 92.222656 62.171875 C 91.726562 62.300781 91.078125 62.429688 90.285156 62.5625 C 89.492188 62.699219 88.613281 62.769531 87.660156 62.769531 C 86.765625 62.769531 86.019531 62.640625 85.417969 62.382812 C 84.8125 62.125 84.328125 61.769531 83.96875 61.3125 C 83.605469 60.859375 83.34375 60.3125 83.1875 59.675781 C 83.035156 59.042969 82.957031 58.347656 82.957031 57.59375 L 82.957031 51.328125 L 85.53125 51.328125 L 85.53125 57.1875 C 85.53125 58.386719 85.707031 59.242188 86.054688 59.753906 C 86.402344 60.265625 87.007812 60.523438 87.878906 60.523438 C 88.1875 60.523438 88.519531 60.507812 88.867188 60.476562 C 89.214844 60.453125 89.472656 60.417969 89.648438 60.375 L 89.648438 51.328125 Z M 101.855469 62.511719 L 101.855469 56.632812 C 101.855469 55.464844 101.707031 54.621094 101.417969 54.097656 C 101.125 53.578125 100.582031 53.316406 99.789062 53.316406 C 99.503906 53.316406 99.191406 53.335938 98.851562 53.378906 C 98.507812 53.421875 98.253906 53.457031 98.082031 53.488281 L 98.082031 62.511719 L 95.5 62.511719 L 95.5 51.691406 C 96 51.550781 96.652344 51.414062 97.457031 51.28125 C 98.257812 51.15625 99.105469 51.089844 100 51.089844 C 100.765625 51.089844 101.394531 51.191406 101.886719 51.390625 C 102.375 51.59375 102.785156 51.859375 103.113281 52.1875 C 103.265625 52.070312 103.464844 51.949219 103.707031 51.820312 C 103.949219 51.691406 104.21875 51.574219 104.519531 51.46875 C 104.816406 51.363281 105.132812 51.273438 105.464844 51.199219 C 105.800781 51.125 106.140625 51.089844 106.480469 51.089844 C 107.34375 51.089844 108.058594 51.214844 108.621094 51.46875 C 109.179688 51.714844 109.617188 52.066406 109.9375 52.515625 C 110.257812 52.960938 110.480469 53.503906 110.601562 54.144531 C 110.722656 54.777344 110.78125 55.46875 110.78125 56.226562 L 110.78125 62.511719 L 108.207031 62.511719 L 108.207031 56.632812 C 108.207031 55.464844 108.0625 54.621094 107.777344 54.097656 C 107.492188 53.578125 106.945312 53.316406 106.136719 53.316406 C 105.726562 53.316406 105.335938 53.382812 104.964844 53.519531 C 104.59375 53.65625 104.320312 53.789062 104.136719 53.917969 C 104.25 54.273438 104.328125 54.648438 104.371094 55.046875 C 104.414062 55.449219 104.4375 55.875 104.4375 56.328125 L 104.4375 62.511719 Z M 125.589844 62.832031 C 124.480469 62.832031 123.488281 62.660156 122.609375 62.320312 C 121.726562 61.976562 120.984375 61.476562 120.375 60.8125 C 119.761719 60.148438 119.292969 59.339844 118.96875 58.382812 C 118.640625 57.429688 118.476562 56.332031 118.476562 55.09375 C 118.476562 53.851562 118.664062 52.753906 119.039062 51.800781 C 119.417969 50.84375 119.933594 50.035156 120.585938 49.371094 C 121.234375 48.710938 122.003906 48.207031 122.886719 47.863281 C 123.765625 47.523438 124.710938 47.351562 125.714844 47.351562 C 126.328125 47.351562 126.886719 47.398438 127.382812 47.492188 C 127.878906 47.582031 128.308594 47.683594 128.679688 47.800781 C 129.050781 47.917969 129.355469 48.039062 129.59375 48.167969 C 129.835938 48.292969 130.007812 48.386719 130.105469 48.441406 L 129.320312 50.640625 C 128.980469 50.425781 128.492188 50.226562 127.863281 50.03125 C 127.226562 49.839844 126.542969 49.742188 125.804688 49.742188 C 125.167969 49.742188 124.570312 49.855469 124.015625 50.078125 C 123.460938 50.300781 122.984375 50.628906 122.578125 51.070312 C 122.171875 51.515625 121.855469 52.070312 121.625 52.738281 C 121.398438 53.410156 121.289062 54.1875 121.289062 55.074219 C 121.289062 55.855469 121.375 56.574219 121.554688 57.226562 C 121.730469 57.886719 122.003906 58.453125 122.375 58.933594 C 122.746094 59.40625 123.214844 59.777344 123.78125 60.042969 C 124.347656 60.308594 125.027344 60.441406 125.824219 60.441406 C 126.777344 60.441406 127.554688 60.34375 128.152344 60.152344 C 128.746094 59.960938 129.207031 59.777344 129.53125 59.605469 L 130.257812 61.804688 C 130.089844 61.921875 129.855469 62.035156 129.5625 62.144531 C 129.273438 62.261719 128.929688 62.371094 128.535156 62.480469 C 128.132812 62.585938 127.6875 62.671875 127.191406 62.734375 C 126.695312 62.800781 126.160156 62.832031 125.589844 62.832031 Z M 136.414062 60.695312 C 137.210938 60.695312 137.816406 60.652344 138.226562 60.566406 L 138.226562 57.703125 C 138.082031 57.660156 137.875 57.617188 137.609375 57.574219 C 137.339844 57.53125 137.042969 57.507812 136.714844 57.507812 C 136.429688 57.507812 136.140625 57.53125 135.851562 57.574219 C 135.5625 57.617188 135.300781 57.691406 135.066406 57.804688 C 134.832031 57.917969 134.640625 58.082031 134.496094 58.285156 C 134.355469 58.496094 134.285156 58.753906 134.285156 59.066406 C 134.285156 59.683594 134.476562 60.109375 134.859375 60.34375 C 135.242188 60.578125 135.761719 60.695312 136.414062 60.695312 Z M 136.203125 51.050781 C 137.054688 51.050781 137.773438 51.160156 138.355469 51.371094 C 138.9375 51.585938 139.398438 51.886719 139.75 52.269531 C 140.097656 52.65625 140.347656 53.121094 140.496094 53.667969 C 140.644531 54.21875 140.722656 54.824219 140.722656 55.476562 L 140.722656 62.253906 C 140.320312 62.339844 139.71875 62.441406 138.917969 62.5625 C 138.117188 62.6875 137.210938 62.75 136.203125 62.75 C 135.535156 62.75 134.921875 62.683594 134.367188 62.554688 C 133.816406 62.429688 133.34375 62.21875 132.949219 61.933594 C 132.5625 61.648438 132.257812 61.277344 132.035156 60.824219 C 131.816406 60.367188 131.703125 59.804688 131.703125 59.132812 C 131.703125 58.492188 131.828125 57.949219 132.082031 57.507812 C 132.328125 57.066406 132.664062 56.703125 133.089844 56.425781 C 133.515625 56.148438 134.011719 55.949219 134.574219 55.828125 C 135.136719 55.710938 135.722656 55.648438 136.332031 55.648438 C 136.617188 55.648438 136.914062 55.667969 137.226562 55.699219 C 137.535156 55.734375 137.871094 55.796875 138.226562 55.878906 L 138.226562 55.457031 C 138.226562 55.15625 138.191406 54.871094 138.121094 54.597656 C 138.046875 54.328125 137.921875 54.089844 137.75 53.886719 C 137.570312 53.675781 137.335938 53.515625 137.046875 53.40625 C 136.753906 53.289062 136.386719 53.230469 135.945312 53.230469 C 135.351562 53.230469 134.804688 53.273438 134.304688 53.359375 C 133.808594 53.445312 133.40625 53.546875 133.089844 53.660156 L 132.769531 51.566406 C 133.097656 51.449219 133.574219 51.335938 134.203125 51.21875 C 134.824219 51.109375 135.492188 51.050781 136.203125 51.050781 Z M 151.265625 56.972656 C 151.265625 55.816406 151.007812 54.917969 150.492188 54.277344 C 149.972656 53.636719 149.136719 53.316406 147.988281 53.316406 C 147.742188 53.316406 147.492188 53.328125 147.226562 53.347656 C 146.964844 53.367188 146.707031 53.417969 146.453125 53.488281 L 146.453125 59.882812 C 146.679688 60.039062 146.980469 60.1875 147.355469 60.316406 C 147.734375 60.453125 148.136719 60.523438 148.5625 60.523438 C 149.5 60.523438 150.183594 60.203125 150.621094 59.5625 C 151.050781 58.921875 151.265625 58.058594 151.265625 56.972656 Z M 153.910156 56.933594 C 153.910156 57.789062 153.800781 58.570312 153.578125 59.285156 C 153.355469 59.996094 153.042969 60.605469 152.632812 61.121094 C 152.21875 61.632812 151.703125 62.03125 151.085938 62.320312 C 150.46875 62.605469 149.769531 62.75 148.988281 62.75 C 148.460938 62.75 147.976562 62.683594 147.539062 62.554688 C 147.097656 62.429688 146.734375 62.285156 146.453125 62.125 L 146.453125 66.46875 L 143.871094 66.46875 L 143.871094 51.691406 C 144.398438 51.550781 145.046875 51.414062 145.8125 51.28125 C 146.582031 51.15625 147.390625 51.089844 148.242188 51.089844 C 149.125 51.089844 149.914062 51.226562 150.605469 51.5 C 151.300781 51.769531 151.894531 52.160156 152.382812 52.667969 C 152.875 53.171875 153.25 53.785156 153.515625 54.5 C 153.777344 55.222656 153.910156 56.035156 153.910156 56.933594 Z M 159.171875 51.328125 L 159.171875 62.511719 L 156.59375 62.511719 L 156.59375 51.328125 Z M 159.453125 48.058594 C 159.453125 48.539062 159.292969 48.925781 158.976562 49.210938 C 158.667969 49.496094 158.296875 49.640625 157.871094 49.640625 C 157.433594 49.640625 157.058594 49.496094 156.742188 49.210938 C 156.429688 48.925781 156.273438 48.539062 156.273438 48.058594 C 156.273438 47.558594 156.429688 47.164062 156.742188 46.882812 C 157.058594 46.597656 157.433594 46.453125 157.871094 46.453125 C 158.296875 46.453125 158.667969 46.597656 158.976562 46.882812 C 159.292969 47.164062 159.453125 47.558594 159.453125 48.058594 Z M 162.328125 58.0625 L 162.328125 48.378906 L 164.902344 47.949219 L 164.902344 51.328125 L 168.863281 51.328125 L 168.863281 53.488281 L 164.902344 53.488281 L 164.902344 58.042969 C 164.902344 58.941406 165.046875 59.582031 165.332031 59.964844 C 165.617188 60.351562 166.097656 60.542969 166.78125 60.542969 C 167.25 60.542969 167.664062 60.492188 168.027344 60.394531 C 168.390625 60.296875 168.675781 60.203125 168.890625 60.121094 L 169.3125 62.171875 C 169.011719 62.300781 168.625 62.429688 168.140625 62.5625 C 167.660156 62.699219 167.09375 62.769531 166.4375 62.769531 C 165.644531 62.769531 164.980469 62.660156 164.449219 62.445312 C 163.917969 62.234375 163.492188 61.921875 163.175781 61.515625 C 162.867188 61.109375 162.644531 60.621094 162.519531 60.042969 C 162.390625 59.464844 162.328125 58.804688 162.328125 58.0625 Z M 175.28125 60.695312 C 176.078125 60.695312 176.679688 60.652344 177.089844 60.566406 L 177.089844 57.703125 C 176.949219 57.660156 176.742188 57.617188 176.476562 57.574219 C 176.203125 57.53125 175.90625 57.507812 175.582031 57.507812 C 175.296875 57.507812 175.007812 57.53125 174.71875 57.574219 C 174.425781 57.617188 174.160156 57.691406 173.925781 57.804688 C 173.691406 57.917969 173.503906 58.082031 173.363281 58.285156 C 173.222656 58.496094 173.152344 58.753906 173.152344 59.066406 C 173.152344 59.683594 173.34375 60.109375 173.726562 60.34375 C 174.109375 60.578125 174.628906 60.695312 175.28125 60.695312 Z M 175.070312 51.050781 C 175.921875 51.050781 176.636719 51.160156 177.214844 51.371094 C 177.800781 51.585938 178.265625 51.886719 178.617188 52.269531 C 178.964844 52.65625 179.214844 53.121094 179.363281 53.667969 C 179.511719 54.21875 179.585938 54.824219 179.585938 55.476562 L 179.585938 62.253906 C 179.1875 62.339844 178.585938 62.441406 177.785156 62.5625 C 176.980469 62.6875 176.074219 62.75 175.070312 62.75 C 174.402344 62.75 173.789062 62.683594 173.234375 62.554688 C 172.683594 62.429688 172.207031 62.21875 171.816406 61.933594 C 171.429688 61.648438 171.125 61.277344 170.902344 60.824219 C 170.679688 60.367188 170.570312 59.804688 170.570312 59.132812 C 170.570312 58.492188 170.695312 57.949219 170.949219 57.507812 C 171.195312 57.066406 171.53125 56.703125 171.957031 56.425781 C 172.382812 56.148438 172.878906 55.949219 173.441406 55.828125 C 174 55.710938 174.582031 55.648438 175.199219 55.648438 C 175.480469 55.648438 175.777344 55.667969 176.09375 55.699219 C 176.402344 55.734375 176.734375 55.796875 177.089844 55.878906 L 177.089844 55.457031 C 177.089844 55.15625 177.054688 54.871094 176.988281 54.597656 C 176.914062 54.328125 176.789062 54.089844 176.609375 53.886719 C 176.433594 53.675781 176.199219 53.515625 175.90625 53.40625 C 175.617188 53.289062 175.253906 53.230469 174.8125 53.230469 C 174.21875 53.230469 173.671875 53.273438 173.171875 53.359375 C 172.671875 53.445312 172.269531 53.546875 171.957031 53.660156 L 171.636719 51.566406 C 171.964844 51.449219 172.441406 51.335938 173.0625 51.21875 C 173.6875 51.109375 174.359375 51.050781 175.070312 51.050781 Z M 186.980469 60.585938 L 186.617188 62.722656 C 185.851562 62.710938 185.214844 62.625 184.707031 62.464844 C 184.203125 62.3125 183.804688 62.089844 183.503906 61.792969 C 183.207031 61.503906 182.996094 61.140625 182.878906 60.703125 C 182.753906 60.269531 182.695312 59.777344 182.695312 59.222656 L 182.695312 46.34375 L 185.273438 45.921875 L 185.273438 58.726562 C 185.273438 59.039062 185.300781 59.304688 185.351562 59.515625 C 185.398438 59.730469 185.484375 59.910156 185.613281 60.0625 C 185.742188 60.210938 185.917969 60.328125 186.136719 60.40625 C 186.359375 60.484375 186.640625 60.542969 186.980469 60.585938 Z M 186.980469 60.585938 " fill-opacity="1" fill-rule="nonzero"/><path stroke-linecap="butt" transform="matrix(0, 0.746681, -0.746681, 0, 202.830295, 20.907078)" fill="none" stroke-linejoin="miter" d="M -0.00110912 1.002119 L 93.998157 1.002119 " stroke="#172853" stroke-width="2" stroke-opacity="1" stroke-miterlimit="4"/></svg>